<?xml version="1.0" encoding="UTF-8"?>
<svg id="Layer_2" data-name="Layer 2" xmlns="http://www.w3.org/2000/svg" viewBox="0 0 33.36 26.18">
  <g id="Layer_1-2" data-name="Layer 1">
    <g>
      <path d="M3.61,7.23c-1.99,0-3.61-1.62-3.61-3.61S1.62,0,3.61,0s3.61,1.62,3.61,3.61-1.62,3.61-3.61,3.61ZM3.61,.69C2,.69,.69,2,.69,3.61s1.31,2.92,2.92,2.92,2.92-1.31,2.92-2.92S5.22,.69,3.61,.69Z" style="fill: #1bcf8e;"/>
      <path d="M30.84,7.23H12.76c-1.39,0-2.52-1.13-2.52-2.52V2.52c0-1.39,1.13-2.52,2.52-2.52H30.84c1.39,0,2.52,1.13,2.52,2.52v2.18c0,1.39-1.13,2.52-2.52,2.52ZM12.76,.69c-1.01,0-1.83,.82-1.83,1.83v2.18c0,1.01,.82,1.83,1.83,1.83H30.84c1.01,0,1.83-.82,1.83-1.83V2.52c0-1.01-.82-1.83-1.83-1.83H12.76Z" style="fill: #545454;"/>
      <path d="M3.61,16.7c-1.99,0-3.61-1.62-3.61-3.61s1.62-3.61,3.61-3.61,3.61,1.62,3.61,3.61-1.62,3.61-3.61,3.61Zm0-6.53c-1.61,0-2.92,1.31-2.92,2.92s1.31,2.92,2.92,2.92,2.92-1.31,2.92-2.92-1.31-2.92-2.92-2.92Z" style="fill: #1bcf8e;"/>
      <path d="M30.84,16.7H12.76c-1.39,0-2.52-1.13-2.52-2.52v-2.18c0-1.39,1.13-2.52,2.52-2.52H30.84c1.39,0,2.52,1.13,2.52,2.52v2.18c0,1.39-1.13,2.52-2.52,2.52ZM12.76,10.17c-1.01,0-1.83,.82-1.83,1.83v2.18c0,1.01,.82,1.83,1.83,1.83H30.84c1.01,0,1.83-.82,1.83-1.83v-2.18c0-1.01-.82-1.83-1.83-1.83H12.76Z" style="fill: #545454;"/>
      <path d="M3.61,26.18c-1.99,0-3.61-1.62-3.61-3.61s1.62-3.61,3.61-3.61,3.61,1.62,3.61,3.61-1.62,3.61-3.61,3.61Zm0-6.53c-1.61,0-2.92,1.31-2.92,2.92s1.31,2.92,2.92,2.92,2.92-1.31,2.92-2.92-1.31-2.92-2.92-2.92Z" style="fill: #1bcf8e;"/>
      <path d="M30.84,26.18H12.76c-1.39,0-2.52-1.13-2.52-2.52v-2.18c0-1.39,1.13-2.52,2.52-2.52H30.84c1.39,0,2.52,1.13,2.52,2.52v2.18c0,1.39-1.13,2.52-2.52,2.52Zm-18.08-6.53c-1.01,0-1.83,.82-1.83,1.83v2.18c0,1.01,.82,1.83,1.83,1.83H30.84c1.01,0,1.83-.82,1.83-1.83v-2.18c0-1.01-.82-1.83-1.83-1.83H12.76Z" style="fill: #545454;"/>
      <path d="M3.4,4.94c-.1,0-.2-.05-.27-.12l-1.09-1.31c-.12-.15-.1-.37,.04-.49,.15-.12,.37-.1,.49,.04l.81,.98,1.26-1.62c.12-.15,.34-.18,.49-.06,.15,.12,.18,.34,.06,.49l-1.52,1.96c-.06,.08-.16,.13-.27,.13,0,0,0,0,0,0Z" style="fill: #1bcf8e;"/>
      <path d="M3.4,14.41c-.1,0-.2-.05-.27-.12l-1.09-1.31c-.12-.15-.1-.37,.04-.49,.15-.12,.37-.1,.49,.04l.81,.98,1.26-1.62c.12-.15,.34-.18,.49-.06,.15,.12,.18,.34,.06,.49l-1.52,1.96c-.06,.08-.16,.13-.27,.13,0,0,0,0,0,0Z" style="fill: #1bcf8e;"/>
    </g>
  </g>
</svg>